<?xml version="1.0" encoding="utf-8"?>
<!-- Svg Vector Icons : http://www.onlinewebfonts.com/icon -->
<!DOCTYPE svg PUBLIC "-//W3C//DTD SVG 1.1//EN" "http://www.w3.org/Graphics/SVG/1.1/DTD/svg11.dtd">
<svg version="1.1" xmlns="http://www.w3.org/2000/svg" xmlns:xlink="http://www.w3.org/1999/xlink" x="0px" y="0px" viewBox="0 0 1000 1000" enable-background="new 0 0 1000 1000" xml:space="preserve">
<metadata> Svg Vector Icons : http://www.onlinewebfonts.com/icon </metadata>
<g><path d="M500,10C229.4,10,10,229.4,10,500c0,270.6,219.4,490,490,490c270.6,0,490-219.4,490-490C990,229.4,770.6,10,500,10z M824.7,824.7c-42.2,42.2-91.3,75.3-146,98.4C622.1,947,562,959.2,500,959.2S377.9,947,321.3,923.1c-54.7-23.1-103.8-56.2-146-98.4c-42.2-42.2-75.3-91.3-98.4-146C53,622.1,40.8,562,40.8,500c0-62,12.1-122.1,36.1-178.7c23.1-54.7,56.2-103.8,98.4-146c42.2-42.2,91.3-75.3,146-98.4C377.9,53,438,40.8,500,40.8S622.1,53,678.7,76.9c54.7,23.1,103.8,56.2,146,98.4c42.2,42.2,75.3,91.3,98.4,146C947,377.9,959.2,438,959.2,500c0,62-12.1,122.1-36.1,178.7C900,733.4,866.9,782.5,824.7,824.7z M384.9,481.1l4.4-4.3c4.9-4.8,5-12.7,0.3-17.7l-69.4-73.1l66.7-69.1c4.7-4.9,4.6-12.7-0.3-17.4l-4.4-4.3c-4.9-4.7-12.7-4.6-17.4,0.3L299,363.6l-62.8-66.2c-4.7-5-12.5-5.1-17.4-0.3l-4.4,4.3c-4.9,4.8-5,12.7-0.3,17.7l63.4,66.8l-66.9,69.2c-4.7,4.9-4.6,12.7,0.3,17.4l4.4,4.3c4.9,4.7,12.7,4.6,17.4-0.3l65.9-68.3l68.8,72.6C372.2,485.7,380,485.9,384.9,481.1z M708.5,385.9l66.7-69.1c4.7-4.9,4.6-12.7-0.3-17.4l-4.4-4.3c-4.9-4.7-12.7-4.6-17.4,0.3l-65.8,68.1l-62.8-66.2c-4.7-5-12.5-5.1-17.4-0.3l-4.4,4.3c-4.9,4.8-5,12.7-0.3,17.7l63.4,66.8l-66.9,69.2c-4.7,4.9-4.6,12.7,0.3,17.4l4.4,4.3c4.9,4.7,12.7,4.6,17.4-0.3l65.9-68.3l68.8,72.6c4.7,5,12.5,5.1,17.4,0.3l4.4-4.3c4.9-4.8,5-12.7,0.3-17.7L708.5,385.9z M657.9,696.5c-36.2-29.4-74.4-47.9-113.6-55c-31.6-5.7-63.8-3.9-95.5,5.3c-53.7,15.5-87.7,46.7-89.1,48c-6.2,5.8-6.6,15.5-0.8,21.7c5.8,6.2,15.5,6.6,21.8,0.8c0.3-0.3,30.8-28.1,77.8-41.3c61.9-17.4,122.5-2.5,180,44.3c2.9,2.3,6.3,3.5,9.7,3.5c4.5,0,8.9-1.9,12-5.7C665.5,711.6,664.5,701.9,657.9,696.5z"/></g>
</svg>